<?xml version="1.0" encoding="utf-8"?>
<!-- Generator: Adobe Illustrator 16.0.0, SVG Export Plug-In . SVG Version: 6.00 Build 0)  -->
<!DOCTYPE svg PUBLIC "-//W3C//DTD SVG 1.1//EN" "http://www.w3.org/Graphics/SVG/1.1/DTD/svg11.dtd">
<svg version="1.1" id="图层_1" xmlns="http://www.w3.org/2000/svg" xmlns:xlink="http://www.w3.org/1999/xlink" x="0px" y="0px"
	 width="500px" height="500px" viewBox="0 0 500 500" enable-background="new 0 0 500 500" xml:space="preserve">
<path fill-rule="evenodd" clip-rule="evenodd" fill="#191919" d="M270.437,229.81c0.393,0.248,0.836,0.393,1.295,0.373
	c0.754-0.032,1.55-0.465,2.223-0.687c0.382-0.129,0.633-0.032,0.998-0.05c0.092-0.005,0.199-0.031,0.301-0.074
	c0.232,0.169,0.508,0.292,0.786,0.339c0.029,0.122,0.062,0.21,0.101,0.257c0.129,0.158,0.288,0.216,0.365,0.444
	c0.076,0.23,0.016,0.552,0.316,0.624c0.389,0.092,0.275-0.393,0.195-0.718c-0.07-0.29-0.22-0.678-0.346-1.023
	c0.232,0.221,0.39,0.306,0.531,0.732c0.131,0.39,0.037,0.482,0.469,0.583c0.164,0.042,0.101-0.27,0.113-0.343
	c0.051-0.256-0.189-0.974-0.357-1.142c-0.293-0.293-0.428-0.741-0.6-1.154c0.292,0.161,0.705,0.061,0.906,0.212
	c0.231,0.172,0.399,0.267,0.674,0.318c0.313,0.063,0.721-0.111,0.415-0.42c-0.272-0.274-0.682-0.456-1.012-0.621
	c-0.181-0.089-0.417-0.147-0.659-0.211l-0.572-0.468c-0.07-0.166-0.156-0.333-0.217-0.461c-0.238-0.493-2.731,0.325-3.137,0.695
	c-0.722,0.661-1.176,0.849-1.877,1.083c-0.387-0.038-0.906-0.078-1.5-0.186c-1.703-0.302-3.883-0.816-4.247-0.884
	c-0.015-0.004-0.039-0.01-0.07-0.02c-0.086-0.048-0.196-0.1-0.333-0.152c-0.76-0.285-1.701-0.632-2.5-0.825
	c-2.776-0.67-5.591-1.583-8.021-3.024c0.111-0.244,0.18-0.434,0.172-0.512c-0.033-0.365-1.364-1.219-1.75-1.464
	c-0.856-0.545-1.746-1.142-2.656-1.82c-0.456-0.34-1.7-1.374-2.618-1.945c-0.026-0.061-0.056-0.116-0.09-0.163
	c-0.239-0.338-1.093-0.514-1.635-0.72c-0.308-0.116-0.75-0.132-1.182-0.156c-0.024-0.227-0.025-0.438,0.059-0.604
	c0.093-0.188,0.348-0.236,0.425-0.4c0.073-0.167-0.026-0.443-0.042-0.597c-0.009-0.099-0.044-0.198-0.093-0.299
	c0.018-0.012,0.035-0.025,0.05-0.037c0.522-0.431,0.934-0.512,0.954-0.757c0.046-0.523-1.749-1.905-1.293-2.228
	c0.059-0.039,0.178-0.245,0.131-0.451c-0.057-0.244-0.241-0.529-0.362-0.838c0.851-1.48-1.252-3.375-2.474-3.826
	c-0.931-0.343-1.489-0.413-2.142-0.157c-1.123-0.16-2.492-0.003-3.079,0.193c-1.229,0.409-1.578,1.255-1.951,2.002
	c-0.419,0.837-0.594,1.323-0.581,1.858l-0.192,0.143c-0.201,0.151-0.085,0.367-0.057,0.685c0.102,1.135,1.225,3.136,1.962,4.277
	c-0.098,0.125-0.176,0.225-0.206,0.271c-0.023,0.033-0.048,0.074-0.079,0.125c-0.526,0.085-1.144,0.147-1.349,0.7
	c-0.194,0.527-0.379-0.006-0.784,0.129c-0.608,0.202-0.334,0.772-1.335,0.966c-1.128,0.218-2.304,0.811-3.245,1.125
	c-0.75,0.25-1.31,0.677-1.786,1.201c-1.729,0.234-3.021,2.164-3.095,3.781c-0.004,0.056-0.008,0.115-0.015,0.176
	c-1.824,1.451-3.362,3.257-5.679,4.334c-1.167,0.545-2.338,1.396-2.747,2.484c-0.142,0.376-0.406,1.665-0.29,2.017
	c0.016,0.043,0.026,0.088,0.037,0.132l-0.026,2.78c-0.032,3.126,0.302,6.694,0.313,6.965l0.144,3.049l0.318,2.844l0.155,0.61
	l0.005,0.081c0.002,0.035,0.005,0.068,0.006,0.102l0.131,1.25c0.137,0.334,0.314,0.43,0.473,0.347
	c0.03,0.003,0.063-0.006,0.104-0.024c0.069-0.037,0.36-0.153,0.395-0.154c0.081-0.003,0.015-0.21,0.017-0.212
	c0.007-0.118-0.13-0.103-0.178-0.204l-0.001-0.003c0.005-0.022,0.009-0.043,0.014-0.066l0.254-0.096
	c0.066,0.186,0.056,0.378,0.215,0.496c0.234,0.175,0.478-0.023,0.648-0.295c-0.101,0.402-0.178,0.854-0.238,1.299l-0.027,0.201
	c-0.101,0.814-0.15,1.576-0.201,1.936c-0.099,0.682-0.205,1.762-0.24,2.995l-0.005,0.199c-0.083,3.726-1.073,5.997-1.511,9.601
	l-0.868,7.091c-0.149,1.196-0.705,5.797-1.137,10.04c-0.285,0.657-0.543,1.279-0.752,1.837c-0.254,0.669-1.448,1.415-0.643,2.392
	c0.264,0.321,0.586,0.619,0.941,0.908c-0.093,1.405-0.116,2.408-0.019,2.693c1.255,3.724,3.534,3.73,6.551,5.967
	c0.855,0.634,4.944-0.272,4.08-1.978c-0.061-0.121-0.29-0.67-1.138-0.908c-0.658-0.188-1.09-0.939-1.133-1.027
	c-0.934-1.952-1.366-3.451-1.778-5.37c0.248,0.041,0.364-0.134,0.254-0.688c-1.752-9.032,1.641-16.604,2.459-24.961
	c0.23-0.607,0.432-1.732,0.6-2.131c0.493-1.154,0.549-2.406,0.918-3.663c0.123-0.419,0.297-0.847,0.509-1.281l0.106-0.222
	c0.919-1.826,3.183-5.327,3.183-5.61l0.417-0.088c0,0,1.189,2.881,1.72,4.625l0.056,0.188c0.194,0.636,0.383,1.287,0.579,1.938
	c0.904,3.043,1.979,6.117,2.545,7.926l1.385,4.422c0.142,0.453,0.277,0.773,0.401,0.979c0.005,0.092,0.013,0.183,0.017,0.275
	c0.058,1.17,0.649,9.755,2.349,12.913l-0.112,0.036c0.186,0.586,0.195,0.787,0.473,0.863c0.147,0.775,0.335,1.557,0.481,1.996
	c1.189,3.572,2.683,1.065,5.079,0.268c1.491-0.494,3.378-1.166,4.777-1.819c2.372-1.104,3.413-4.684-0.39-3.417
	c-1.446,0.48-1.979,0.507-3.09,0.133c0.045-0.156,0.072-0.321,0.085-0.491l-0.287,0.095c-0.587-2.203-1.738-3.162-2.303-5.601
	c-0.73-3.151-3.693-10.108-3.579-12.588c0.021-0.49-0.011-1.001-0.085-1.536c0.041-0.568,0.091-1.113,0.165-1.629
	c0.17-1.182-0.025-3.684-0.442-6.388l-0.028-0.188c-0.259-1.651-0.597-3.364-0.982-4.89l-0.047-0.187
	c-0.113-0.435-0.229-0.852-0.346-1.247l-0.056-0.188c-0.216-0.697-0.441-1.321-0.668-1.832c0.734-0.224,1.557-0.445,1.816-0.963
	c0.177-0.356-0.17-0.675-0.445-0.859l-0.515-0.886c1.191-1.824,1.181-4.382,2.021-6.064c0.716-1.429,2.269-2.959,2.645-4.239
	c0.053-0.175,0.109-0.35,0.169-0.519c0.766-1.062,1.237-2.149,2.201-3.438c0.401-0.535,0.767-1.455,1.169-2.191
	c0.139-0.108,0.279-0.203,0.428-0.271c0.512-0.251,1.026-0.027,1.564,0.29c0.348,0.47,0.681,0.961,1.049,1.411
	c0.374,0.451,0.971,1.483,1.688,0.617c0.263-0.322,0.923-0.331,1.315-0.607c0.119,0.088,0.25,0.174,0.406,0.262
	c1.117,0.648,3.137,1.42,4.142,1.915c0.577,0.283,1.021,0.646,1.554,0.67c2.013,0.093,4.651,0.479,6.698,0.343
	c1.351-0.091,2.609,0.175,3.97,0.303 M218.855,244.137c0.026-0.62,0.003-1.426-0.106-1.994c-0.135-0.701-0.389-2.087-0.183-2.643
	c0.21-0.549,0.509-2.884,0.473-3.426c-0.071-1.078,0.009-2.351,0.112-3.535c0.947-0.769,2.171-1.188,3.284-1.722
	c0.174,0.144,0.335,0.296,0.466,0.482c0.25,0.354,1.024,0.462,1.603,0.641c-0.878,1.107-1.627,2.251-2.214,3.417
	c-0.464,0.923-0.681,1.828-1.028,2.794c-0.324,0.904-0.843,1.705-1.034,2.669c-0.054,0.287-0.802,2.4-1.062,3.859
	C219.053,244.503,218.949,244.321,218.855,244.137z"/>
</svg>
