<?xml version="1.0" encoding="utf-8"?>
<!-- Generator: Adobe Illustrator 16.0.0, SVG Export Plug-In . SVG Version: 6.00 Build 0)  -->
<!DOCTYPE svg PUBLIC "-//W3C//DTD SVG 1.1//EN" "http://www.w3.org/Graphics/SVG/1.1/DTD/svg11.dtd">
<svg version="1.1" id="图层_1" xmlns="http://www.w3.org/2000/svg" xmlns:xlink="http://www.w3.org/1999/xlink" x="0px" y="0px"
	 width="500px" height="500px" viewBox="0 0 500 500" enable-background="new 0 0 500 500" xml:space="preserve">
<g>
	<path fill="#191919" d="M255.211,212.886c0.734,0.218,1.477,0.994,2.117,1.41l0.705,0.708c0.508,0.872,0.709,1.194,0.734,2.194
		c-0.104,0.714-0.195,1.433-0.305,2.143c1.055-1.049,0.326,3.027-0.504,2.298c-0.145,0.57-0.258,0.959-0.563,1.465l0.059,0.93
		c0.422,0.046,0.646,0.589,1.188,1.036c1.301,0.367,5.5,0.567,6.279,1.313c0.529,0,0.324,0.35,0.652,0.882
		c0.463,0.52,0.443,0.768,0.531,1.462l0.354,0.304c0.598,0,0.439,0.243,0.528,0.808l0.784,0.882
		c1.527,1.702,2.846,3.276,4.035,5.225c0.895,1.357,1.102,2.07,0.527,3.583c-0.283,1.234-0.615,1.727-1.389,2.748
		c-1.172,2.057-2.326,3.954-3.908,5.477c-0.205,0.352-0.514,1.318-0.811,1.555c-0.115,0.096-0.252-0.047-0.352-0.193
		c-0.219-0.336-0.383,0.305-0.832-0.252c-0.402,0.258-0.811,0.52-1.211,0.781c-0.223,0.303-0.385,0.504-0.682,0.732
		c0.488,1.466,1.6,3.395,1.777,4.441c0.102,0.57-0.934,0.938-1.324,1.285c0.355,0.756,0.363,1.053,0.328,1.893
		c0.158,1.471,0.055,2.809-0.053,4.287c0.033,1.26-0.152,2.459-0.301,3.709c0.119,1.777,0.09,3.34-0.104,5.047
		c0.039,0.73,0.289,1.338,0.381,2.025c0.104,0.783,0.049,1.646,0.049,2.516c0.035,0.803,0.018,1.344-0.174,2.119
		c0.35,1.498,0.127,2.58-0.078,4.111c0.777,2.426,0.889,3.885-0.326,5.854c0.793,0.227,1.186,0.229,1.59,1.186
		c0.086,0.396,0.17,0.791,0.252,1.186c0.979,0.725,1.912,1.471,2.852,2.246c0.369,0.391,0.521,0.477,0.58,1.01
		c-0.059,1.221-0.98,1.488-2.094,1.488l-1.186-0.275c-1.031-0.377-1.91-0.658-2.627-1.49l-1.488-0.428
		c-0.182-0.076-2.762-0.693-2.043-1.717c-0.844-4.195-1.762-8.359-2.396-12.59l-0.631-4.467c-0.219-0.697-0.322-0.992-0.127-1.691
		c0.168-2.789,0.32-5.084-0.1-7.871c-0.158-1.078-0.289-2.023-0.656-3.051c-0.508,0.939-0.672,1.971-0.934,3.002
		c-0.547,4.373-1.088,8.766-2.17,13.043c-0.596,1.914-0.879,3.855-1.438,5.777l-0.329,0.959c0.223,2.25,0.354,4.061-0.252,6.283
		c-0.098,0.646-0.481,1.064-0.757,1.563c0.155,0.387,0.146,0.387-0.049,0.758c-1.391,0.896-2.577,1.563-3.734,2.75
		c-1.167,0.881-1.529,1.145-2.651,1.158l-1.286-0.18c-2.352-0.863,1.235-4.092,2.043-4.92l0.026-1.082
		c0-0.9,0.076-1.104,0.554-1.865l0.632-1.012c-0.857-2.053-1.274-2.582-0.809-4.893c0.431-1.512,0.595-2.822,0.732-4.393
		c-0.115-2.506,0.134-4.709,0.604-7.191c-0.106-4.959,0.174-9.877,0.657-14.807c-0.732,0.119,0.121-2.285,0.304-3.229
		c0.282-0.938,0.507-1.789,0.653-2.751c-0.465-0.551-1.583-0.26-2.294-0.91l-0.301-0.227c-0.547,0.449-0.456,0.318-0.885-0.229
		l-0.152-0.248l-0.604,0.176c-0.903,0.523-3.753-4.948-4.264-5.753c-2.742-3.681-3.009-5.899-0.024-9.005l2.218-2.398
		c0.304-0.283,0.575-0.667,0.985-0.757c0.267-0.515,0.24-0.709,0.808-0.809c0.383-0.625,0.584-0.97,1.185-1.386
		c0.441-1.148,0.344-2.925,1.538-2.7c2.101-0.776,4.358-1.622,6.206-1.391c0.132-0.341,0.152-0.553,0.457-0.754v-0.936
		c-0.229-0.48-0.282-0.857-0.356-1.386c-0.45,0.486-0.651-0.25-0.832-0.608c-0.137-0.693-0.706-1.985,0.455-1.815l-0.203-0.855
		c-0.26-2.289,1.416-4.624,3.309-5.122C254.83,212.923,254.568,212.797,255.211,212.886L255.211,212.886z M245.193,235.315
		c-0.486,0.402-0.942,0.664-1.489,0.905l-0.934,1.563c-0.425,0.594-0.575,0.876-1.233,1.161l0.176,0.051
		c0.663,1.368,1.614,1.918,0.882,2.854c0.325,0.396,0.389,0.538,0.881,0.654c0.757,0.313,0.806,0.743,0.784,1.54l1.994,1.941
		l0.504,0.582c0.45-0.037,0.803-0.109,1.237,0.023c-0.277-0.506-0.332-0.711-0.352-1.286c-0.724-1.418-0.331-3.17-0.38-4.796
		C246.421,238.874,245.491,237.139,245.193,235.315L245.193,235.315z M261.996,244.221v2.018c0.207-0.24,0.424-0.461,0.648-0.664
		c0.459-0.426,0.953-0.786,1.494-1.155c0.438-0.688,0.607-0.819,1.338-1.184c0.111-1.138,0.463-1.743,1.514-2.372
		c-0.225-0.94-0.029-1.294,0.633-1.892c-0.762-0.563-0.895-0.975-1.285-1.843l-0.256-1.061c-0.785,0.497-0.725-0.991-1.486,0.127
		c-0.219,1.587-0.518,3.019-0.936,4.565C263.438,242.543,263.189,242.858,261.996,244.221z"/>
</g>
</svg>
