<?xml version="1.0" encoding="utf-8"?>
<!-- Generator: Adobe Illustrator 16.0.0, SVG Export Plug-In . SVG Version: 6.00 Build 0)  -->
<!DOCTYPE svg PUBLIC "-//W3C//DTD SVG 1.1//EN" "http://www.w3.org/Graphics/SVG/1.1/DTD/svg11.dtd">
<svg version="1.1" id="图层_1" xmlns="http://www.w3.org/2000/svg" xmlns:xlink="http://www.w3.org/1999/xlink" x="0px" y="0px"
	 width="500px" height="500px" viewBox="0 0 500 500" enable-background="new 0 0 500 500" xml:space="preserve">
<path fill="#5D5D5D" d="M283.979,214.775c-0.99-0.717-2.058-0.932-2.386-0.479l-10.187,14.058l-18.643-13.508l10.186-14.057
	c0.328-0.452-0.207-1.4-1.197-2.118c-0.991-0.717-2.059-0.932-2.387-0.478l-58.194,80.313c-0.327,0.455,0.208,1.402,1.197,2.119
	c0.99,0.717,2.057,0.93,2.385,0.479l10.187-14.059l18.642,13.509l-10.186,14.058c-0.327,0.453,0.209,1.4,1.198,2.119
	c0.989,0.717,2.057,0.93,2.384,0.477l58.197-80.315C285.503,216.439,284.968,215.492,283.979,214.775z M268.811,231.936l-4.45,6.141
	l-18.642-13.509l4.45-6.141L268.811,231.936z M257.314,247.802l-18.642-13.51l4.449-6.14l18.642,13.509L257.314,247.802z
	 M250.269,257.525l-18.642-13.509l4.448-6.14l18.644,13.507L250.269,257.525z M243.224,267.247l-18.644-13.507l4.451-6.142
	l18.643,13.508L243.224,267.247z M217.535,263.463l4.45-6.141l18.644,13.507l-4.45,6.142L217.535,263.463z"/>
<path fill="#B1B1B2" d="M283.543,214.011c-0.993-0.716-2.061-0.931-2.389-0.479l-10.187,14.058l-18.641-13.508l10.187-14.059
	c0.328-0.451-0.207-1.399-1.197-2.115c-0.99-0.717-2.059-0.932-2.387-0.479l-58.195,80.315c-0.327,0.453,0.208,1.399,1.197,2.116
	c0.989,0.717,2.057,0.932,2.385,0.48l10.187-14.059l18.642,13.507l-10.186,14.058c-0.327,0.452,0.208,1.401,1.197,2.116
	c0.99,0.718,2.057,0.933,2.385,0.479l58.194-80.316C285.066,215.676,284.531,214.728,283.543,214.011z M268.371,231.174
	l-4.447,6.138l-18.642-13.506l4.449-6.14L268.371,231.174z M256.877,247.038l-18.64-13.509l4.449-6.14l18.642,13.508
	L256.877,247.038z M249.832,256.761l-18.642-13.507l4.45-6.142l18.641,13.509L249.832,256.761z M242.788,266.483l-18.642-13.508
	l4.448-6.139l18.642,13.507L242.788,266.483z M217.1,262.699l4.449-6.14l18.642,13.508l-4.448,6.139L217.1,262.699z"/>
</svg>
