<?xml version="1.0" encoding="utf-8"?>
<!-- Generator: Adobe Illustrator 16.0.0, SVG Export Plug-In . SVG Version: 6.00 Build 0)  -->
<!DOCTYPE svg PUBLIC "-//W3C//DTD SVG 1.1//EN" "http://www.w3.org/Graphics/SVG/1.1/DTD/svg11.dtd">
<svg version="1.1" id="图层_1" xmlns="http://www.w3.org/2000/svg" xmlns:xlink="http://www.w3.org/1999/xlink" x="0px" y="0px"
	 width="500px" height="500px" viewBox="0 0 500 500" enable-background="new 0 0 500 500" xml:space="preserve">
<g>
	<g>
		<g>
			<polygon fill="#8FD5B4" points="330.966,337.353 330.966,447.62 221.497,470.932 205.241,404.779 221.521,358.347 			"/>
			<polygon fill="#7BBFA5" points="221.521,358.347 221.497,470.932 170.342,420.824 170.334,313.306 			"/>
		</g>
	</g>
	<g>
		<g>
			<polygon fill="#8FD5B4" points="330.966,239.672 330.966,349.939 221.497,373.251 205.241,307.101 221.521,260.668 			"/>
			<polygon fill="#7BBFA5" points="221.521,260.668 221.497,373.251 170.342,323.145 170.334,215.624 			"/>
		</g>
	</g>
	<g>
		<g>
			<polygon fill="#8FD5B4" points="330.966,75.812 330.966,186.08 221.497,209.393 205.241,143.24 221.521,96.808 			"/>
			<polygon fill="#7BBFA5" points="221.521,96.808 221.497,209.393 170.342,159.284 170.334,51.764 			"/>
			<polygon fill="#B0E9D5" points="330.966,75.812 221.521,96.808 170.334,51.764 272.506,30.183 			"/>
		</g>
	</g>
	<g>
		<g>
			<polygon fill="#8FD5B4" points="330.966,163.731 330.966,273.999 221.497,297.31 205.241,231.159 221.521,184.727 			"/>
			<polygon fill="#7BBFA5" points="221.521,184.727 221.497,297.31 170.342,247.203 170.334,139.683 			"/>
		</g>
	</g>
</g>
</svg>
