<?xml version="1.0" encoding="utf-8"?>
<!-- Generator: Adobe Illustrator 16.0.0, SVG Export Plug-In . SVG Version: 6.00 Build 0)  -->
<!DOCTYPE svg PUBLIC "-//W3C//DTD SVG 1.1//EN" "http://www.w3.org/Graphics/SVG/1.1/DTD/svg11.dtd">
<svg version="1.1" id="图层_1" xmlns="http://www.w3.org/2000/svg" xmlns:xlink="http://www.w3.org/1999/xlink" x="0px" y="0px"
	 width="500px" height="500px" viewBox="0 0 500 500" enable-background="new 0 0 500 500" xml:space="preserve">
<path fill-rule="evenodd" clip-rule="evenodd" fill="#191919" d="M270.695,238.484l-1.191-1.732c-0.15-0.263-0.291-0.55-0.423-0.853
	c-0.02-0.358-0.069-0.73-0.073-1.118l-0.078-6.406c0.031-0.117,0.057-0.267,0.078-0.449c0.119-1.042,0.419-2.101,0.419-3.198
	c0-4.123,0.667-9.523-4.305-9.523c-2.747,0-7.165,1.064-9.255,0.344c-0.936-0.323-2.208-0.162-3.285,0.176
	c-3.17-0.507-7.767-0.329-8.788-0.329c-2.146,0-2.754,1.101-4.121,0.947c-0.158-0.178-0.311-0.357-0.454-0.545
	c-0.462-0.612-0.664-1.279-1.131-1.828c-0.601-0.705-1.491-1.238-2.368-1.467c-2.974-0.774-3.093-0.525-5.637,1.065
	c-1.483,0.927-4.666,4.783-3.06,6.649c0.107,0.949,0.389,1.955,0.773,2.339c0.72,0.722,1.208,0.789,1.6,2.096
	c0.137,0.46,0.147,0.903,0.207,1.365c-1.979,1.632-4.194,3.802-5.729,5.338c-0.151,0.149-0.309,0.292-0.472,0.429
	c-0.376,0.143-0.779,0.33-1.226,0.486c-4.278,1.496-7.654,4.471-11.575,6.446c-0.473,0.238-0.942,0.441-1.418,0.623l-10.44,1.007
	c-0.611,0.38-0.22,0.68,0.042,0.715c0.59,0.149,3.377-0.444,3.377-0.444c-1.062,0.541-1.989,1.403-3.329,1.578
	c-0.532,0.068-0.02,0.59,0.228,0.684c0.062,0.026,0.131,0.041,0.207,0.047c-0.02,0.017-0.038,0.035-0.054,0.05
	c-0.644,0.643,0.176,0.674,0.704,0.552c0.648-0.149,1.335-0.776,1.917-1.167c-0.09,0.155-0.174,0.301-0.261,0.425
	c-0.288,0.414-1.331,0.945-0.286,1.064c1.03,0.119,1.6-1.113,2.242-1.746c0.986,0.506,3.232,0.829,4.12,0.829
	c0.415,0,1.827-0.773,3.634-1.314c1.652-0.495,3.729-1.003,5.494-1.455l3.99-1.319l2.021-1.122l0.234-0.13l2.862-1.593l0.224-0.123
	l1.763-0.979c0.322-0.181,0.608-0.354,0.862-0.519c0.672,0.235,1.348,0.525,1.952,0.777l0.238,0.101
	c0.185,0.076,0.361,0.146,0.527,0.212c1.504,0.576,1.413-0.766,2.553-1.41c0.859-0.485,1.289-1.138,2.471-1.179
	c1.708,1.527,3.422,3.317,5.185,5.067l1.432,1.396c2.425,2.313,4.959,4.404,7.707,5.532c0.064,0.025,0.129,0.054,0.192,0.084
	c-2.134,7.158-5.962,11.347-5.752,19.414l0.142,5.462c-0.386,2.929-1.229,7.169,0.046,9.045c-1.054,0.798-1.634,0.955-3.349,0.955
	c-4.515,0-2.129,3.55,0.799,3.888c1.726,0.198,3.982,0.151,5.751,0.151c2.846,0,5.332,2.147,5.332-2.093
	c0-0.522-0.078-1.423-0.196-2.304c0.292-0.198,0.196-0.437,0.196-1.278c0-0.835-0.081-1.614-0.125-2.384
	c0.068-0.864,0.187-1.716,0.324-2.566c0.666-1.577,1.24-3.658,1.516-4.992c0.691-3.345,2.087-5.997,2.972-8.771
	c0.173,1.34,0.37,2.516,0.456,3.215c0.234,1.92,0.271,13.262-0.534,14.548c-0.802,1.281-2.536,4.277-2.267,5.707
	c-1.928,1.717-3.43,2.873-6.075,4.196c-2.016,1.006-3.036,3.313,0.191,3.313c4.155,0,7.936-0.07,11.503-2.553
	c1.318-0.917-0.382-3.203-0.382-4.684c0-0.064,0-0.125,0.002-0.191c1.08-0.021,2.128-0.07,2.893-0.838
	c1.591-1.59,1.95-5.256,2.298-8.397c0.182-1.647,0.361-3.15,0.712-4.134c0.891-2.502,2.169-9.267,2.849-14.601
	c0.224-0.917,0.422-2.354,0.464-2.726C271.09,249.473,272.063,241.59,270.695,238.484z M261.837,226.244
	c0.374-0.165,0.714-0.355,0.961-0.604c0.281-0.278,0.716-0.425,1.183-0.549c0.219,1.004,0.47,1.953,0.727,2.733
	c0.037,0.49,0.079,0.973,0.119,1.458C263.834,228.253,262.821,227.274,261.837,226.244z"/>
</svg>
