<?xml version="1.0" encoding="utf-8"?>
<!-- Generator: Adobe Illustrator 16.0.0, SVG Export Plug-In . SVG Version: 6.00 Build 0)  -->
<!DOCTYPE svg PUBLIC "-//W3C//DTD SVG 1.1//EN" "http://www.w3.org/Graphics/SVG/1.1/DTD/svg11.dtd">
<svg version="1.1" id="图层_1" xmlns="http://www.w3.org/2000/svg" xmlns:xlink="http://www.w3.org/1999/xlink" x="0px" y="0px"
	 width="500px" height="500px" viewBox="0 0 500 500" enable-background="new 0 0 500 500" xml:space="preserve">
<g>
	<g>
		<g>
			<polygon fill="#5F93CA" points="330.316,304.292 330.316,414.561 220.848,437.871 204.592,371.719 220.872,325.286 			"/>
			<polygon fill="#457DB9" points="220.872,325.286 220.848,437.871 169.692,387.764 169.685,280.242 			"/>
		</g>
	</g>
	<g>
		<g>
			<polygon fill="#5F93CA" points="330.316,239.125 330.316,349.393 220.848,372.703 204.592,306.554 220.872,260.121 			"/>
			<polygon fill="#457DB9" points="220.872,260.121 220.848,372.703 169.692,322.598 169.685,215.078 			"/>
		</g>
	</g>
	<g>
		<g>
			<polygon fill="#5F93CA" points="330.316,36.248 330.316,146.515 220.848,169.83 204.592,103.675 220.872,57.244 			"/>
			<polygon fill="#457DB9" points="220.872,57.244 220.848,169.83 169.692,119.719 169.685,12.2 			"/>
			<polygon fill="#73ABDD" points="330.316,36.248 220.872,57.244 169.685,12.2 271.856,-9.382 			"/>
		</g>
	</g>
	<g>
		<g>
			<polygon fill="#5F93CA" points="330.316,137.172 330.316,247.439 220.848,270.751 204.592,204.601 220.872,158.168 			"/>
			<polygon fill="#457DB9" points="220.872,158.168 220.848,270.751 169.692,220.645 169.685,113.125 			"/>
		</g>
	</g>
	<g>
		<g>
			<polygon fill="#5F93CA" points="330.316,400.654 330.316,510.922 220.848,534.232 204.592,468.084 220.872,421.65 			"/>
			<polygon fill="#457DB9" points="220.872,421.65 220.848,534.232 169.692,484.129 169.685,376.607 			"/>
		</g>
	</g>
</g>
</svg>
