<?xml version="1.0" encoding="utf-8"?>
<!-- Generator: Adobe Illustrator 16.0.0, SVG Export Plug-In . SVG Version: 6.00 Build 0)  -->
<!DOCTYPE svg PUBLIC "-//W3C//DTD SVG 1.1//EN" "http://www.w3.org/Graphics/SVG/1.1/DTD/svg11.dtd">
<svg version="1.1" id="图层_1" xmlns="http://www.w3.org/2000/svg" xmlns:xlink="http://www.w3.org/1999/xlink" x="0px" y="0px"
	 width="500px" height="500px" viewBox="0 0 500 500" enable-background="new 0 0 500 500" xml:space="preserve">
<path fill="#191919" d="M231.104,234.421c-1.742,2.032-3.306,3.202-3.99,4.759c-4.428,10.076-12.608,17.05-20.006,24.684
	c-1.619,1.671-3.451,3.208-4.75,5.104c-7.462,10.896-17.976,18.09-29.257,24.348c-3.542,1.966-5.037,4.601-5.31,8.789
	c-0.265,4.072-1.994,8.047-3.08,12.063c-0.613-0.097-1.227-0.194-1.84-0.291c0-2.468,0-4.937,0-8.019
	c-8.683,2.826-3.189,10.004-5.413,14.437c-3.894-3.998-5.742-13.207-2.684-17.366c11.124-15.121,22.466-30.086,33.985-44.908
	c3.143-4.045,8.029-6.881,10.624-11.172c3.549-5.868,5.488-12.687,8.462-18.935c2.53-5.315,5-10.804,8.473-15.494
	c5.596-7.561,5.911-15.356-0.146-22.529c-2.793-3.308-5.707-6.537-8.231-10.043c-4.247-5.898-4.124-13.025,0.167-19.059
	c3.4-4.782,8.214-5.897,13.711-4.745c1.113,0.232,2.469,0.476,3.189,1.221c4.998,5.166,12.487,8.361,13.246,16.978
	c0.118,1.349,2.203,3.677,3.094,3.55c1.578-0.224,3.669-1.688,4.267-3.153c3.565-8.748,8.082-17.405,9.742-26.555
	c1.933-10.644,1.314-21.759,1.691-32.673c0.32-9.288,0.48-18.581,0.713-27.872c0.024-1-0.002-2.004,0.088-2.998
	c0.904-10.166,0.23-19.897-7.307-27.87c-0.581-0.615-0.673-1.692-1.216-3.158c2.413,0.776,4.188,1.349,6.507,2.096
	c-0.342-3.388-0.634-6.283-1.035-10.264c4.62,2.302,8.693,3.975,12.328,6.324c1.376,0.889,2.699,3.52,2.414,5.054
	c-2.339,12.622,0.7,24.814,2.325,37.147c0.735,5.583,0.698,11.266,1.079,16.898c0.725,10.734,1.524,21.463,2.234,32.197
	c0.285,4.303,1.174,8.743,0.471,12.898c-1.934,11.443,0.953,22.077,4.123,32.799c4.649,15.734,11.158,31.256,13.248,47.34
	c4.248,32.663,14.738,63.66,22.199,95.449c2.26,9.621,3.979,19.368,5.976,29.052c0.165,0.801,0.467,1.604,0.855,2.321
	c9.522,17.571,12.733,36.924,15.872,56.292c1.01,6.234,1.575,12.563,2.981,18.704c0.825,3.603,2.946,6.898,4.403,10.368
	c0.589,1.398,1.745,3.396,1.225,4.212c-0.656,1.021-2.741,1.397-4.261,1.553c-8.622,0.875-15.757-3.829-20.479-9.426
	c-4.123-4.886-4.877-12.719-6.787-19.346c-3.854-13.366-7.949-26.688-11.095-40.228c-4.876-20.982-16.371-38.988-25.159-58.208
	c-1.566-3.429-3.964-6.478-6.628-10.742c-3.278,2.911-6.681,5.063-8.918,8.08c-6.831,9.207-13.923,18.345-19.567,28.272
	c-5.467,9.615-8.979,20.32-13.868,30.293c-5.748,11.725-11.794,23.322-18.227,34.683c-3.273,5.782-5.049,11.67-4.032,18.087
	c0.545,3.438-0.755,4.767-3.471,5.988c-7.285,3.278-14.365,1.591-21.35-0.829c-2.562-0.888-2.796-5.196-0.585-7.012
	c0.889-0.73,1.933-1.309,2.979-1.803c5.763-2.728,9.093-5.736,8.159-13.628c-0.718-6.074,2.714-12.816,4.954-19.025
	c5.288-14.662,9.256-30.18,16.992-43.469c7.043-12.1,6.384-25.877,12.672-37.865c5.281-10.07,7.231-22.043,13.253-31.522
	c5.637-8.873,1.472-16.206-0.125-23.731C239.021,253.227,234.743,244.419,231.104,234.421z"/>
</svg>
