<?xml version="1.0" encoding="utf-8"?>
<!-- Generator: Adobe Illustrator 16.0.0, SVG Export Plug-In . SVG Version: 6.00 Build 0)  -->
<!DOCTYPE svg PUBLIC "-//W3C//DTD SVG 1.1//EN" "http://www.w3.org/Graphics/SVG/1.1/DTD/svg11.dtd">
<svg version="1.1" id="图层_1" xmlns="http://www.w3.org/2000/svg" xmlns:xlink="http://www.w3.org/1999/xlink" x="0px" y="0px"
	 width="500px" height="500px" viewBox="0 0 500 500" enable-background="new 0 0 500 500" xml:space="preserve">
<path fill="#191919" d="M302.74,251.982c-6.537,6.451-13.664,3.186-19.645,1.723c-10.74-2.627-17.063,3.641-23.353,9.893
	c-1.556,1.545-1.423,5.912-0.613,8.533c5.427,17.592,0.593,34.563-2.521,51.672c-2.055,11.299-1.463,22.5,1.584,33.574
	c1.554,5.645,0.503,7.395-5.135,8.061c-4.95,0.584-10.025,0.455-14.872,1.476c-9.684,2.035-19.223,4.756-28.878,6.946
	c-2.948,0.668-6.078,0.533-10.13,0.845c2.615-4.978,4.404-8.363,9.261-10.289c5.584-2.215,10.347-6.427,15.621-9.508
	c13.09-7.646,15.819-19.57,14.235-33.435c-2.272-19.893-4.474-39.793-7.298-59.908c-6.9,9.75-16.143,17.586-20.531,29.021
	c-1.704,4.438-4.411,8.482-6.458,12.801c-1.143,2.41-1.678,5.111-2.854,7.5c-0.685,1.389-1.953,3.248-3.207,3.467
	c-5.008,0.867-11.002-2.239-13.044-6.217c-2.272-4.424-1.851-11.68,2.161-14.732c15.133-11.512,19.953-28.45,24.952-45.399
	c2.02-6.848,4.421-13.6,6.05-20.537c0.918-3.908,1.105-8.145,0.752-12.158c-0.523-5.92-2.137-7.138-8.109-6.699
	c-1.379,0.101-3.705,1.972-3.767,3.127c-0.765,14.248-8.206,26.136-13.151,38.929c-5.727,14.815-12.225,29.104-22.503,41.392
	c-5.021,6.002-11.104,11.381-14.919,18.063c-5.697,9.982-9.834,20.855-14.583,31.373c-0.657,1.455-1.015,3.043-1.511,4.57
	c-0.584-0.068-1.17-0.138-1.754-0.205c0.357-3.73,0.716-7.461,1.074-11.189c-0.499-0.189-0.998-0.379-1.497-0.568
	c-1.128,3.154-2.606,6.236-3.302,9.484c-1.014,4.73-3.213,6.977-8.876,5.166c0.262-1.877,0.509-3.916,0.839-5.941
	c0.326-2.014,0.736-4.016,0.311-6.281c-1.216,2.644-2.432,5.285-3.646,7.927c-0.551-0.177-1.103-0.354-1.654-0.531
	c0.759-3.36,1.328-6.778,2.326-10.067c1.03-3.39,2.479-6.652,3.881-10.326c-3.379,1.646-6.262,3.051-9.145,4.457
	c-0.488-0.73-0.976-1.461-1.463-2.193c5.248-4.088,10.533-8.129,15.73-12.279c3.452-2.758,8.025-5.008,9.96-8.627
	c13.061-24.428,26.495-48.701,35.957-74.885c2.233-6.182,2.331-12.215,1.738-18.604c-0.417-4.504,0.386-9.128,0.727-13.692
	c0.255-3.41,0.644-6.812,0.972-10.216c-0.421-0.179-0.842-0.356-1.264-0.534c-1.564,1.724-2.951,3.67-4.748,5.1
	c-1.433,1.139-4.086,2.779-4.948,2.231c-3.08-1.955-6.013-1.911-9.347-1.352c-2.309,0.388-4.734,0.074-8.137,0.074
	c-1-1.448-2.432-4.364-4.62-6.508c-4.06-3.978-8.316-7.847-12.937-11.134c-5.986-4.258-8.529-9.651-6.248-17.294
	c1.559-5.221,3.68-10.355,6.205-15.186c3.525-6.741,13.975-10.057,23.138-6.819c5.345,1.889,10.492,4.99,14.984,8.499
	c9.683,7.563,11.878,7.645,20.275-1.376c2.155-2.314,4.476-4.473,6.72-6.704c6.527-6.492,14.705-8.337,23.576-9.154
	c21.621-1.992,42.762-0.269,63.526,6.28c8.217,2.593,16.822,4.022,24.928,6.896c22.107,7.839,36.707,22.488,39.478,46.688
	c2.211,19.306,3.93,38.668,5.813,58.01c0.189,1.953,0.025,3.939,0.025,6.164c-6.477,0.735-12.523,1.508-18.592,2.076
	c-3.158,0.297-4.873,1.405-4.472,4.942c0.263,2.301-0.467,4.777,0.089,6.959c0.6,2.353,1.604,5.443,3.428,6.502
	c12.229,7.103,18.826,17.652,23.268,31c4.736,14.228,12.119,27.564,18.103,41.396c0.864,2.002,1.383,5.31,0.334,6.793
	c-7.105,10.06-16.308,16.353-29.451,14.707c-6.75-0.847-7.213-1.644-3.428-7.556c1.791-2.797,3.664-5.557,5.262-8.463
	c4.984-9.065,4.271-17.83-1.732-26.19c-11.598-16.147-24.911-30.709-39.801-43.912c-5.754-5.103-8.951-11.914-9.133-19.834
	C302.689,257.189,302.74,254.586,302.74,251.982z"/>
</svg>
