<?xml version="1.0" encoding="utf-8"?>
<!-- Generator: Adobe Illustrator 16.0.0, SVG Export Plug-In . SVG Version: 6.00 Build 0)  -->
<!DOCTYPE svg PUBLIC "-//W3C//DTD SVG 1.1//EN" "http://www.w3.org/Graphics/SVG/1.1/DTD/svg11.dtd">
<svg version="1.1" id="图层_1" xmlns="http://www.w3.org/2000/svg" xmlns:xlink="http://www.w3.org/1999/xlink" x="0px" y="0px"
	 width="500px" height="500px" viewBox="0 0 500 500" enable-background="new 0 0 500 500" xml:space="preserve">
<g>
	<path fill-rule="evenodd" clip-rule="evenodd" fill="#191919" d="M235.695,220.906c0.557-0.004,1.035,0.174,1.396,0.408
		c0.241,0.158,0.486,0.342,0.443,0.685c0.8,0.764,1.59,1.589,1.752,2.701c0.014,0.419,0.014,0.825,0,1.244
		c0.557,0.431,0.353,1.427-0.412,1.782c-0.166,0.622-0.188,0.805-0.786,1.164l-0.135,0.71c0.26-0.412,0.27-0.042,0.645,0.245
		c0.738-1.008,1.713-2.049,2.721-2.333c0.419-0.118,0.875,0.773,1.048,1.09c0.653,1.306,0.559-0.036,1.569,0.044
		c0-0.564,0.316-2.1,1.31-1.858c0.354-1.37,1.024-1.896,2.125-2.684c1.315-1.776,2.531-3.571,3.944-5.271
		c0.312-0.368,1.028-1.523,1.132-1.243c0.357-0.406,0.366-0.698,0.698-0.388c0.44-0.761,0.885-1.522,1.337-2.27
		c-0.037-0.843-0.06-0.888,0.491-1.351c0.17-0.261,0.266-0.514,0.586-0.476c0.184,0.022,0.321,0.051,0.279,0.584
		c0.259,0.069,0.744,0.127,1.109,0.113c0.326-0.009,0.547-0.137,0.86-0.05c0.22,0.056,0.371-0.248,0.627-0.409
		c0.223-0.146,0.482-0.346,0.749-0.426c0.181-0.053,0.365,0.099,0.2,0.393l-0.424,0.378c-0.332,0.33-0.345,0.3,0.112,0.199
		c0.267-0.168,0.415-0.283,0.688-0.409c0.21-0.105,0.481-0.32,0.678-0.267c0.115,0.032,0.35,0.257-0.172,0.632
		c-0.643,0.358-0.236,0.14,0.223,0.044l0.289-0.089l0.29-0.066c0.531-0.085,0.629,0.185,0.489,0.349
		c-0.081,0.096-0.294,0.153-0.514,0.229c0.452,0.305,0.094,0.457-0.336,0.498c-0.25,0.026-0.466,0.143-0.506,0.143
		c-0.425,0.175-0.689,0.317-1.086,0.289c-0.414,0.118-0.828,0.353-1.233,0.454c-0.554,0.139-1.028,0.538-1.516,0.653
		c-0.505,0.39-0.688,0.859-0.995,1.42l-0.378,0.578c0.354,0.187,0.27,0.473,0.066,0.885c0.652,0.111-0.126,0.808-0.467,1.351
		l-1.484,2.172c-0.706,1.104-1.377,2.186-1.938,3.368c-0.256,0.862-0.522,1.189-1.075,1.795c-0.233,0.167-0.389,0.215-0.563,0.311
		c-0.398,0.219-0.616,0.809-0.944,1.24c-0.345,0.885-0.633,1.482-1.239,2.058c-0.854,0.634-1.453,1.161-1.95,2.04l-0.844,0.885
		c-0.152,0.231-0.152,0.298-0.152,0.577c0.482,3.876,1.203,7.627,2.281,11.366l1.087,4.104c0.361,1.579,0.662,2.143,0.187,2.549
		c-0.039,0.031-0.117,0.055-0.168,0.083c-0.215,0.14-0.51,0.272-0.973,0.425l-1.662,0.752c-1.069,0.456-1.411,0.148-2.083-0.645
		l-0.464-0.707l-0.312-0.533c0.229,0.545,0.227,1.415,0.546,1.855c0.508,0.705,0.552,1.511,0.541,2.574
		c-0.116,1.387-0.049,2.805-0.094,4.162c-0.038,1.104-0.175,2.15-0.304,3.285c-0.169,1.858-0.4,3.604-0.542,5.38
		c-0.068,0.821,0.066,1.61,0.054,2.391c-0.01,0.641-0.17,1.247-0.229,1.899c-0.108,1.127-0.144,2.306-0.193,3.425
		c0.027,1.163-0.085,2.017-0.334,2.929c-0.195,1.654,0.702,3.721,0.134,5.049c0.508,0.338,0.622,0.731,0.622,1.287
		c0.199,0.252,0.329,0.26,0.11,0.508c0.714,0.387,1.347,0.803,2.017,1.264l0.996,0.729c0.296,0.53,0.33,0.622,0.245,1.222
		c-0.349,0.695-0.391,0.672-1.044,0.796c-1.633,0.054-2.604-0.339-3.945-1.218c-0.783-0.365-1.479-0.539-2.323-0.732
		c-1.074-0.299-1.449-0.4-1.175-1.459c-0.42-1.404-0.446-2.521-0.289-4.256c-0.231-4.64-1.449-9.244-1.194-13.895l-0.067-6.847
		c0.104-0.558-0.045-0.31-0.175,0.591c-0.17,1.16-0.352,3.171-0.38,3.506c-0.334,3.825-0.704,7.974-1.84,10.97
		c-0.02,0.696-0.063,0.86-0.444,1.444c0.122,0.768,0.07,0.752-0.222,1.48l0.047,2.262c-0.015,1.572-0.104,2.834-0.447,4.078
		l-0.307,1.547c-0.263,0.461,0.394,0.695-1.04,1.066c-1.109,0.523-1.931,0.986-2.861,1.773c-0.809,0.438-1.434,0.738-2.302,0.776
		c-1.225-0.26-2.571-0.583-1.398-2.106c0.741-0.834,1.512-1.554,2.438-2.172c-0.352-0.415-0.211-0.346,0.223-0.644
		c-0.058-0.618-0.019-0.571,0.309-1.041c-0.505-0.649-0.512-0.545,0.048-1.153c-0.134-0.564,0.184-0.818,0.485-1.307
		c0.142-0.914-0.008-2.132-0.299-3.158c-0.203-0.719-0.155-1.389-0.234-2.024c-0.122-2.642-0.113-5.055,0.332-7.668
		c0.067-2.373-0.002-4.742-0.064-7.11c0.052-2.283-0.157-4.94,0.464-6.895c-0.077-0.635-0.198-1.062,0.089-1.637
		c0.148-0.457,0.325-0.971,0.488-1.42c-0.051-0.482-0.079-0.575,0.112-1.019l-0.845-0.288c-1.014,1.547-1.224,2.531-2.502,0.996
		l-0.889-1.041c-0.866-0.361-0.301-1.211-0.062-2.391l0.907-4.035l0.22-0.71c0.049-1.021,0.461-2.033,0.797-2.991
		c0.229-1.078,0.555-2.921,0.774-4.558c0.424-3.193,0.452-2.777-0.107-3.595c-0.651-0.717-1.502-1.713-2.258-2.55
		c-1.076-1.18-1.996-2.252-2.108-3.653l-0.466-0.09c-0.878-0.12-1.201-1.183-1.659-1.905c-0.954-1.628-1.898-3.252-2.817-4.898
		c-0.279-0.415-1.197-1.285-0.753-1.461c-0.557-0.787-1.028-0.99-0.421-1.82c-0.279-0.52-0.604-1.117-0.954-1.592
		c-0.613-0.431-0.845-0.453-1.216-0.666c-0.563-0.197-0.926-0.393-1.421-0.729c-0.71-0.159-1.115-0.458-1.572-0.843
		c-0.272-0.254-0.762-0.521-0.622-0.953c-0.335-0.375-0.466-0.476-0.443-0.634c0.013-0.102,0.154-0.156,0.154-0.229
		c0.015-0.469,0.563-0.228,0.888,0.042c-0.139-0.548,0.104-0.521,0.512-0.377c0.533,0.514,1.113,0.879,1.817,1.218
		c0.269,0.028,0.567,0.057,0.93,0.267c0.373,0.063,1.148,0.333,0.911-0.178c-0.828-0.77,0.518-1.415,0.705-0.152
		c0.699,0.345,1.14,0.726,1.02,1.548c0.36,0.672,0.725,1.344,1.089,2.017c0.328-0.215,0.287,0.108,0.727,0.622l0.555,0.711
		c0.437-0.089,0.886,1.012,1.353,1.572l1.283,1.64c1.209,1.608,2.357,3.168,3.791,4.631c0.97,0.688,1.624,1.246,2.15,2.483
		c0.49,1.072,0.626-0.171,1.264-0.622c0.839-0.444,2.357,0.762,2.947,1.352c1.251,1.598,0.765-0.384,0.423-1.063
		c-0.61,0.59-0.595,0.27-0.582-0.354c-0.049-0.299-0.297-0.885,0.182-0.885c0.066-1.408-0.184-3.102,0.618-3.97l0.134-0.464
		C233.835,221.657,234.645,220.912,235.695,220.906z"/>
	<path fill-rule="evenodd" clip-rule="evenodd" fill="#191919" d="M254.274,218.238c0.223,0.171,0.305,0.244,0.577,0.289
		c0.206-0.295,0.368-0.124,0.39,0.13c0.017,0.194-0.068,0.432-0.199,0.6c-0.082,0.105-0.346-0.054-0.621-0.152l-0.6-0.346
		c-0.447-0.247-0.854-0.504-1.199-0.897c-0.278-0.212-0.218-0.276,0.021-0.6c0.201-0.225,0.23-0.292,0.456-0.076l0.146,0.197
		C253.593,217.664,253.935,217.946,254.274,218.238z"/>
	<path fill-rule="evenodd" clip-rule="evenodd" fill="#191919" d="M216.957,217.763l0.662-0.47l0.646-0.476
		c0.243-0.181,0.362-0.4,0.563-0.057l0.334,0.479c0.175,0.193,0.799,0.763,0.564,1.078c-0.773,0.526-1.562,0.982-2.35,1.43
		c-0.06,0.014-0.127,0.031-0.188,0.044l-0.254-0.244C216.193,218.692,216.101,218.27,216.957,217.763z"/>
	<path fill-rule="evenodd" clip-rule="evenodd" fill="#191919" d="M238.18,233.078c0.663,1.943,1.246,3.906,1.82,5.883
		c0.511,1.351,0.562,2.785,0.708,4.205c-0.017,1.56-0.054,3.311,0.244,5.328c0.107,0.415,0.127,0.669,0.158,0.844
		c0.02,0.106-0.134,0.104-0.346,0.209c-1.525,0.602-2.771,0.952-4.366,0.933l-0.79,0.012c-1.675,0.022-3.182-0.476-4.688-1.056
		c-0.402-0.121-0.79-0.095-0.776-0.263c0.039-0.546,0.53-1.231,0.79-1.897c0.432-1.113,0.732-2.257,0.974-3.209
		c0.399-1.89,0.438-3.771,1.133-5.619c0.46-1.39,0.77-2.83,1.174-4.238l0.308-0.954l0.325-0.98c0.314-1.256,0.792-1.364-0.581-2.004
		c0.337,0.051,0.642,0.121,0.968,0.209c0.591,0.083,0.847,0.178,0.906,0.813c-0.129,1.407,0.009,0.735,0.246-0.169
		c-0.043-0.605,0.216-0.824,0.799-0.931c0.335-0.118,0.47-0.172,0.721-0.423c0.1-0.048,0.246,0.156,0.136,0.413
		C237.529,231.342,237.638,231.732,238.18,233.078z"/>
</g>
</svg>
