<?xml version="1.0" encoding="utf-8"?>
<!-- Generator: Adobe Illustrator 16.0.0, SVG Export Plug-In . SVG Version: 6.00 Build 0)  -->
<!DOCTYPE svg PUBLIC "-//W3C//DTD SVG 1.1//EN" "http://www.w3.org/Graphics/SVG/1.1/DTD/svg11.dtd">
<svg version="1.1" id="图层_1" xmlns="http://www.w3.org/2000/svg" xmlns:xlink="http://www.w3.org/1999/xlink" x="0px" y="0px"
	 width="500px" height="500px" viewBox="0 0 500 500" enable-background="new 0 0 500 500" xml:space="preserve">
<g>
	<g>
		<g>
			<polygon fill="#ADCF83" points="330.69,300.919 330.69,411.187 221.221,434.498 204.966,368.346 221.246,321.914 			"/>
			<polygon fill="#83A058" points="221.246,321.914 221.221,434.498 170.064,384.391 170.057,276.871 			"/>
			<polygon fill="#E0DEDD" points="330.69,300.919 221.246,321.914 170.057,276.871 272.227,255.288 			"/>
		</g>
	</g>
	<g>
		<g>
			<polygon fill="#ADCF83" points="330.69,203.47 330.69,313.737 221.221,337.049 204.966,270.896 221.246,224.465 			"/>
			<polygon fill="#83A058" points="221.246,224.465 221.221,337.049 170.064,286.941 170.057,179.421 			"/>
			<polygon fill="#E0DEDD" points="330.69,203.47 221.246,224.465 170.057,179.421 272.227,157.839 			"/>
		</g>
	</g>
	<g>
		<g>
			<polygon fill="#ADCF83" points="330.69,112.358 330.69,222.626 221.221,245.938 204.966,179.785 221.246,133.354 			"/>
			<polygon fill="#83A058" points="221.246,133.354 221.221,245.938 170.064,195.83 170.057,88.31 			"/>
			<polygon fill="#C8E2A3" points="330.69,112.358 221.246,133.354 170.057,88.31 272.227,66.728 			"/>
		</g>
	</g>
</g>
</svg>
