<?xml version="1.0" encoding="utf-8"?>
<!-- Generator: Adobe Illustrator 16.0.0, SVG Export Plug-In . SVG Version: 6.00 Build 0)  -->
<!DOCTYPE svg PUBLIC "-//W3C//DTD SVG 1.1//EN" "http://www.w3.org/Graphics/SVG/1.1/DTD/svg11.dtd">
<svg version="1.1" id="图层_1" xmlns="http://www.w3.org/2000/svg" xmlns:xlink="http://www.w3.org/1999/xlink" x="0px" y="0px"
	 width="500px" height="500px" viewBox="0 0 500 500" enable-background="new 0 0 500 500" xml:space="preserve">
<g>
	<path fill="#191919" d="M230.954,252.392c-0.012,0.005-0.021,0.011-0.021,0.011S230.942,252.398,230.954,252.392z"/>
	<path fill="#191919" d="M232.457,271.143c9.328,1.707,12.83-4.086,12.876-4.109c0.229-0.129,0.307-0.412,0.359-0.591
		c0.051-0.179,0.306-0.383,0.692-0.409c0.383-0.026,1.102,0.563,1.69,0.975c0.59,0.41,1.259,1.281,1.746,1.332
		c0.484,0.053,0.639-0.409,0.639-0.409s-0.052-0.231,0.13,0.05c0.177,0.282,1.024,0.744,1.589,1.129
		c0.391,0.269,1.932,1.139,2.839,1.647c0.021,0.114,0.052,0.2,0.084,0.251c0.309,0.461,0.514,1.127,0.617,2
		c0.102,0.873,0.335,2.565,0.357,3.154c0.027,0.589,0.283,1.078,0.487,1.615c0.206,0.539,0.053,0.847,0,1.668
		c-0.049,0.82,0.334,1.769,0.924,2.846c0.592,1.076,1.666,0.078,2.668-0.616c1-0.69,1.051-0.973,1.537-1.819
		c0.488-0.847,2.104-0.872,2.617-1.154c0.511-0.282,1.949-1.564,2.538-2.41c0.59-0.846,0.59-1.309,0.514-2.41
		c-0.077-1.104-1.078-0.873-1.717-0.643c-0.643,0.231-1.67,0.488-2.207,0.59c-0.539,0.104-1.616,0.361-2.155,0.539
		c-0.539,0.18-0.871-0.461-0.871-0.461c-0.693-0.847-0.974-3.489-1.023-5.232c-0.052-1.744,0-7.617,0-7.617
		c0.539-0.718,1.026-9.666,0.844-10.591c-0.178-0.921-0.818-1.256-1.281-1.409c-0.462-0.153-1.59,0.026-2.874,0.232
		c-1.28,0.203-3.28,0.744-4.538,1.177c-1.255,0.437-2.486,0.564-4.154,1.284c-1.665,0.718-3.309,1.718-4.027,2.103
		c-0.717,0.385-1.869,1.154-2.484,1.615c-0.616,0.463-0.899,1-0.899,1s-3.284-7.257-4.203-9.077
		c-0.925-1.82-2.131-1.641-2.131-1.641s-0.821-0.359-1.564,0.923c-0.743,1.281-0.052,3.051-0.052,3.051s0.205,0.462,0.283,0.617
		c0.077,0.153,1,2.486,1.232,3.077c0.2,0.514-0.127,0.735-0.213,0.784c0.066-0.033,0.261-0.123-0.046,0.139
		c-0.358,0.307,0.206,0.641,0.206,0.641c-0.245,0.208-0.335,0.555-0.363,0.872c-0.331,0.006-0.63,0.077-0.999-0.052
		c-0.586-0.205-2.228-1.898-3.459-2.924c-0.649-0.54-2.033-1.49-3.333-2.398c0,0-1.76-2.133-2.98-3.474
		c-1.219-1.342-0.004-4.989-0.004-4.989c0.203-0.337,0.451-0.733,0.777-1.191c0.869-1.231,2.026-3.719,2.385-4.077
		c0.359-0.361,0.82-1.026,0.896-1.488c0.079-0.462,0.462-1.564,0.669-3.897c0.206-2.335,0-2.873,0.434-4.641
		c0.438-1.771,0.798-2.489,1.256-3.232c0.463-0.743,0.824-1.949,0.873-2.565c0.051-0.614-0.536-1.101-0.536-1.101
		c-0.078-0.54-0.591-0.463-0.591-0.463c-0.181-0.332-0.771-0.024-0.771-0.024c-0.718-0.386-0.976,0.974-0.976,0.974
		s-0.307-0.051-0.717,0.229c-0.41,0.282,0,1.618,0.076,2.053c0.079,0.435-0.255,1.127-0.383,1.795
		c-0.129,0.667-0.897,3.437-1.258,4.052c-0.357,0.616-1.409,2.359-1.795,3.077c-0.384,0.716-1.231,3.667-1.436,4.308
		c-0.092,0.282-0.398,0.623-0.755,0.953l-0.124,0.112c-0.42,0.376-0.871,0.725-1.094,0.935c-0.438,0.409-0.924,2.127-1.541,2.538
		c-0.614,0.412-2.36,1.207-3.104,1.899c-0.744,0.693-0.847,2.615-0.847,2.615c-0.512,0-0.743-0.256-0.896-0.616
		c-0.155-0.358-1.668-0.051-1.668-0.051c-0.461-0.872-1.819-0.23-1.819-0.23s-0.718,0.18-1.592,0.436
		c-0.87,0.257-2.847,1.82-3.026,3.462s0.131,3.693,1.593,4.463c1.46,0.77,3.563,0.665,4.384,0.333
		c0.821-0.333,0.896-0.231,1.359-0.411c0.461-0.18,0.178,1.924-0.025,2.258c-0.206,0.332-0.103,1.974,0,2.359
		c0.104,0.384,0.13,1.258,0.025,1.847c-0.104,0.588,0.23,3.257,0.848,4.128c0.614,0.873,0.512,1.385,0.69,2.025
		s2.13,4.437,2.694,5.463c0.564,1.024,0.741,1.486,1.742,2.564c1,1.077,1.104,0.486,1.205,0.436
		c0.104-0.051,0.335-0.229,0.923-0.512c0.593-0.283,1.695-0.719,2.18-0.977c0.102-0.053,0.31-0.184,0.573-0.359
		c0.235,0.487,0.84,0.744,0.84,0.744s-0.156,1.437-0.282,1.949c-0.131,0.514,0.126,0.308,0.458,0.82
		c0.334,0.513,0.438,0.41,0.876,0.949c0.435,0.539,0.768,0.692,1.51,1.18c0.745,0.487,0.31,0.205,0.592,0.104
		c0.281-0.104,1.229-0.412,1.898-0.516c0.257-0.037,0.394-0.094,0.47-0.146c0.216,0.191,0.309,0.569,0.453,0.714
		c0.203,0.204,1.203,1.102,1.488,1.127c0.279,0.024,0.666-0.462,0.767-0.692c0.104-0.23,0.59-2.539,0.642-3.025
		c0.053-0.488-0.565-0.82-0.565-0.82l-0.097-0.646c0.039-0.029,0.078-0.061,0.124-0.098
		C232.589,272.778,232.403,271.708,232.457,271.143 M233.409,251.441c0,0-0.771-1.155-1.052-2.745
		c-0.283-1.589-0.026-1.692,0.41-2.077c0.436-0.385,1.309-0.153,1.309-0.153c1.281,0.434,4.385,8.334,4.385,8.334
		c0.59,1.129,0.41,1.692,0.41,1.692c-0.361,0.104-0.847-0.179-1.642-0.563c-0.435-0.209-0.714-0.199-0.966-0.123
		c0.203-0.327,0.445-0.762,0.558-1.135c0.202-0.693-0.823-0.743-0.823-0.743c0.051-0.538-1.464-0.282-1.464-0.282L233.409,251.441z
		 M228.276,268.674c0.027-0.333,0.027-0.539-0.076-0.871c-0.021-0.07-0.067-0.129-0.131-0.18c0.203-0.191,0.355-0.33,0.414-0.359
		c0.205-0.102,0.102,0.384,0,0.539c-0.102,0.152,0.024,0.308,0.386,0.385c0.357,0.075,0.537,0.463,0.537,0.463
		s0.743-0.592,0.052,0.1c-0.694,0.693-0.385,2.541-0.516,2.182c-0.127-0.361-0.51-0.718-0.639-1.078
		C228.175,269.495,228.253,269.008,228.276,268.674z M229.149,275.814c-0.076-0.397-0.207-1.111-0.207-1.293
		c0-0.257,0.26-0.411,0.567-0.282c0.21,0.087,0.119,1.021,0.041,1.598L229.149,275.814z M232.15,274.701c0,0-0.591,3-0.819,3.153
		c-0.232,0.154-0.566-0.077-0.874-0.487c-0.155-0.205-0.306-0.58-0.421-0.904c0.032-0.924,0.457-1.798,0.703-1.866
		c0.282-0.075,0.514-0.075,0.871-0.126C231.972,274.418,232.15,274.701,232.15,274.701z M252.666,264.083
		c-0.332-0.358-0.771-0.538-0.999-0.872c-0.233-0.333-2.131-1.205-2.131-1.205c0.152-0.051,0.796-1.152,0.949-1.332
		c0.154-0.18,0.897-0.207,1.384-0.387c0.49-0.179,0.876-0.537,1.361-1.103c0.486-0.563,0.332,1.435,0.385,1.976
		c0.05,0.537,0,0.438,0.103,0.564c0.104,0.128,0.255,0.18,0.231,0.666c-0.025,0.487,0.255,1.848,0.64,3.436
		c0.059,0.237,0.102,0.508,0.137,0.797C253.98,265.574,252.911,264.348,252.666,264.083z"/>
</g>
</svg>
